<?xml version="1.0" encoding="utf-8"?>
<!-- Generator: Adobe Illustrator 25.3.1, SVG Export Plug-In . SVG Version: 6.00 Build 0)  -->
<svg version="1.1" id="Layer_1" xmlns="http://www.w3.org/2000/svg" xmlns:xlink="http://www.w3.org/1999/xlink" x="0px" y="0px"
	 width="1920px" height="1080px" viewBox="0 0 1920 1080" style="enable-background:new 0 0 1920 1080;" xml:space="preserve">
<style type="text/css">
	.st0{opacity:0.5;fill:url(#SVGID_1_);enable-background:new    ;}
	.st1{opacity:0.5;fill:url(#SVGID_2_);enable-background:new    ;}
	.st2{opacity:0.5;fill:url(#SVGID_3_);enable-background:new    ;}
</style>
<linearGradient id="SVGID_1_" gradientUnits="userSpaceOnUse" x1="-152.129" y1="571.9254" x2="1272.7769" y2="571.9254" gradientTransform="matrix(0.8199 0.5726 -0.5726 0.8199 476.6011 -529.1061)">
	<stop  offset="0" style="stop-color:#2DAFD9"/>
	<stop  offset="0.5" style="stop-color:#3461A9"/>
	<stop  offset="1" style="stop-color:#54359A"/>
</linearGradient>
<path class="st0" d="M980.7,972.1L-187.6,156.2l423.9-607.1l936.4,653.9c128,89.4,159.4,265.7,69.9,393.8L980.7,972.1z"/>
<linearGradient id="SVGID_2_" gradientUnits="userSpaceOnUse" x1="578.8057" y1="343.9204" x2="2010.5979" y2="343.9204" gradientTransform="matrix(-0.8199 -0.5726 0.5726 -0.8199 2533.6614 1831.3728)">
	<stop  offset="0" style="stop-color:#2DAFD9"/>
	<stop  offset="0.5" style="stop-color:#3461A9"/>
	<stop  offset="1" style="stop-color:#54359A"/>
</linearGradient>
<path class="st1" d="M1294.1,94.7L2468,914.5l-423.9,607.1l-940.3-656.7c-129-90.1-160.6-267.7-70.5-396.7L1294.1,94.7z"/>
<linearGradient id="SVGID_3_" gradientUnits="userSpaceOnUse" x1="227.1992" y1="1314.6863" x2="1658.9915" y2="1314.6863" gradientTransform="matrix(-0.8199 -0.5726 0.5726 -0.8199 2533.6614 1831.3728)">
	<stop  offset="0" style="stop-color:#2DAFD9"/>
	<stop  offset="0.5" style="stop-color:#3461A9"/>
	<stop  offset="1" style="stop-color:#54359A"/>
</linearGradient>
<path class="st2" d="M2206.8-452l1036.7,724c37.9,26.5,47.1,78.6,20.7,116.5l-328.1,469.9c-26.5,37.9-78.6,47.1-116.5,20.7
	l-1036.7-724c-37.9-26.5-47.1-78.6-20.7-116.5l328.1-469.9C2116.8-469.2,2168.9-478.4,2206.8-452z"/>
</svg>
